<svg version="1.1" xmlns="http://www.w3.org/2000/svg" xmlns:xlink="http://www.w3.org/1999/xlink" width="754" height="655"><defs/><g><text fill="#eeeeee" stroke="none" font-family="Arial" font-size="24px" font-style="normal" font-weight="normal" text-decoration="none" x="0" y="0">UNREGISTERED</text><text fill="#eeeeee" stroke="none" font-family="Arial" font-size="24px" font-style="normal" font-weight="normal" text-decoration="none" x="0" y="30">UNREGISTERED</text><text fill="#eeeeee" stroke="none" font-family="Arial" font-size="24px" font-style="normal" font-weight="normal" text-decoration="none" x="0" y="60">UNREGISTERED</text><text fill="#eeeeee" stroke="none" font-family="Arial" font-size="24px" font-style="normal" font-weight="normal" text-decoration="none" x="0" y="90">UNREGISTERED</text><text fill="#eeeeee" stroke="none" font-family="Arial" font-size="24px" font-style="normal" font-weight="normal" text-decoration="none" x="0" y="120">UNREGISTERED</text><text fill="#eeeeee" stroke="none" font-family="Arial" font-size="24px" font-style="normal" font-weight="normal" text-decoration="none" x="0" y="150">UNREGISTERED</text><text fill="#eeeeee" stroke="none" font-family="Arial" font-size="24px" font-style="normal" font-weight="normal" text-decoration="none" x="0" y="180">UNREGISTERED</text><text fill="#eeeeee" stroke="none" font-family="Arial" font-size="24px" font-style="normal" font-weight="normal" text-decoration="none" x="0" y="210">UNREGISTERED</text><text fill="#eeeeee" stroke="none" font-family="Arial" font-size="24px" font-style="normal" font-weight="normal" text-decoration="none" x="0" y="240">UNREGISTERED</text><text fill="#eeeeee" stroke="none" font-family="Arial" font-size="24px" font-style="normal" font-weight="normal" text-decoration="none" x="0" y="270">UNREGISTERED</text><text fill="#eeeeee" stroke="none" font-family="Arial" font-size="24px" font-style="normal" font-weight="normal" text-decoration="none" x="0" y="300">UNREGISTERED</text><text fill="#eeeeee" stroke="none" font-family="Arial" font-size="24px" font-style="normal" font-weight="normal" text-decoration="none" x="0" y="330">UNREGISTERED</text><text fill="#eeeeee" stroke="none" font-family="Arial" font-size="24px" font-style="normal" font-weight="normal" text-decoration="none" x="0" y="360">UNREGISTERED</text><text fill="#eeeeee" stroke="none" font-family="Arial" font-size="24px" font-style="normal" font-weight="normal" text-decoration="none" x="0" y="390">UNREGISTERED</text><text fill="#eeeeee" stroke="none" font-family="Arial" font-size="24px" font-style="normal" font-weight="normal" text-decoration="none" x="0" y="420">UNREGISTERED</text><text fill="#eeeeee" stroke="none" font-family="Arial" font-size="24px" font-style="normal" font-weight="normal" text-decoration="none" x="0" y="450">UNREGISTERED</text><text fill="#eeeeee" stroke="none" font-family="Arial" font-size="24px" font-style="normal" font-weight="normal" text-decoration="none" x="0" y="480">UNREGISTERED</text><text fill="#eeeeee" stroke="none" font-family="Arial" font-size="24px" font-style="normal" font-weight="normal" text-decoration="none" x="0" y="510">UNREGISTERED</text><text fill="#eeeeee" stroke="none" font-family="Arial" font-size="24px" font-style="normal" font-weight="normal" text-decoration="none" x="0" y="540">UNREGISTERED</text><text fill="#eeeeee" stroke="none" font-family="Arial" font-size="24px" font-style="normal" font-weight="normal" text-decoration="none" x="0" y="570">UNREGISTERED</text><text fill="#eeeeee" stroke="none" font-family="Arial" font-size="24px" font-style="normal" font-weight="normal" text-decoration="none" x="0" y="600">UNREGISTERED</text><text fill="#eeeeee" stroke="none" font-family="Arial" font-size="24px" font-style="normal" font-weight="normal" text-decoration="none" x="0" y="630">UNREGISTERED</text><text fill="#eeeeee" stroke="none" font-family="Arial" font-size="24px" font-style="normal" font-weight="normal" text-decoration="none" x="200" y="0">UNREGISTERED</text><text fill="#eeeeee" stroke="none" font-family="Arial" font-size="24px" font-style="normal" font-weight="normal" text-decoration="none" x="200" y="30">UNREGISTERED</text><text fill="#eeeeee" stroke="none" font-family="Arial" font-size="24px" font-style="normal" font-weight="normal" text-decoration="none" x="200" y="60">UNREGISTERED</text><text fill="#eeeeee" stroke="none" font-family="Arial" font-size="24px" font-style="normal" font-weight="normal" text-decoration="none" x="200" y="90">UNREGISTERED</text><text fill="#eeeeee" stroke="none" font-family="Arial" font-size="24px" font-style="normal" font-weight="normal" text-decoration="none" x="200" y="120">UNREGISTERED</text><text fill="#eeeeee" stroke="none" font-family="Arial" font-size="24px" font-style="normal" font-weight="normal" text-decoration="none" x="200" y="150">UNREGISTERED</text><text fill="#eeeeee" stroke="none" font-family="Arial" font-size="24px" font-style="normal" font-weight="normal" text-decoration="none" x="200" y="180">UNREGISTERED</text><text fill="#eeeeee" stroke="none" font-family="Arial" font-size="24px" font-style="normal" font-weight="normal" text-decoration="none" x="200" y="210">UNREGISTERED</text><text fill="#eeeeee" stroke="none" font-family="Arial" font-size="24px" font-style="normal" font-weight="normal" text-decoration="none" x="200" y="240">UNREGISTERED</text><text fill="#eeeeee" stroke="none" font-family="Arial" font-size="24px" font-style="normal" font-weight="normal" text-decoration="none" x="200" y="270">UNREGISTERED</text><text fill="#eeeeee" stroke="none" font-family="Arial" font-size="24px" font-style="normal" font-weight="normal" text-decoration="none" x="200" y="300">UNREGISTERED</text><text fill="#eeeeee" stroke="none" font-family="Arial" font-size="24px" font-style="normal" font-weight="normal" text-decoration="none" x="200" y="330">UNREGISTERED</text><text fill="#eeeeee" stroke="none" font-family="Arial" font-size="24px" font-style="normal" font-weight="normal" text-decoration="none" x="200" y="360">UNREGISTERED</text><text fill="#eeeeee" stroke="none" font-family="Arial" font-size="24px" font-style="normal" font-weight="normal" text-decoration="none" x="200" y="390">UNREGISTERED</text><text fill="#eeeeee" stroke="none" font-family="Arial" font-size="24px" font-style="normal" font-weight="normal" text-decoration="none" x="200" y="420">UNREGISTERED</text><text fill="#eeeeee" stroke="none" font-family="Arial" font-size="24px" font-style="normal" font-weight="normal" text-decoration="none" x="200" y="450">UNREGISTERED</text><text fill="#eeeeee" stroke="none" font-family="Arial" font-size="24px" font-style="normal" font-weight="normal" text-decoration="none" x="200" y="480">UNREGISTERED</text><text fill="#eeeeee" stroke="none" font-family="Arial" font-size="24px" font-style="normal" font-weight="normal" text-decoration="none" x="200" y="510">UNREGISTERED</text><text fill="#eeeeee" stroke="none" font-family="Arial" font-size="24px" font-style="normal" font-weight="normal" text-decoration="none" x="200" y="540">UNREGISTERED</text><text fill="#eeeeee" stroke="none" font-family="Arial" font-size="24px" font-style="normal" font-weight="normal" text-decoration="none" x="200" y="570">UNREGISTERED</text><text fill="#eeeeee" stroke="none" font-family="Arial" font-size="24px" font-style="normal" font-weight="normal" text-decoration="none" x="200" y="600">UNREGISTERED</text><text fill="#eeeeee" stroke="none" font-family="Arial" font-size="24px" font-style="normal" font-weight="normal" text-decoration="none" x="200" y="630">UNREGISTERED</text><text fill="#eeeeee" stroke="none" font-family="Arial" font-size="24px" font-style="normal" font-weight="normal" text-decoration="none" x="400" y="0">UNREGISTERED</text><text fill="#eeeeee" stroke="none" font-family="Arial" font-size="24px" font-style="normal" font-weight="normal" text-decoration="none" x="400" y="30">UNREGISTERED</text><text fill="#eeeeee" stroke="none" font-family="Arial" font-size="24px" font-style="normal" font-weight="normal" text-decoration="none" x="400" y="60">UNREGISTERED</text><text fill="#eeeeee" stroke="none" font-family="Arial" font-size="24px" font-style="normal" font-weight="normal" text-decoration="none" x="400" y="90">UNREGISTERED</text><text fill="#eeeeee" stroke="none" font-family="Arial" font-size="24px" font-style="normal" font-weight="normal" text-decoration="none" x="400" y="120">UNREGISTERED</text><text fill="#eeeeee" stroke="none" font-family="Arial" font-size="24px" font-style="normal" font-weight="normal" text-decoration="none" x="400" y="150">UNREGISTERED</text><text fill="#eeeeee" stroke="none" font-family="Arial" font-size="24px" font-style="normal" font-weight="normal" text-decoration="none" x="400" y="180">UNREGISTERED</text><text fill="#eeeeee" stroke="none" font-family="Arial" font-size="24px" font-style="normal" font-weight="normal" text-decoration="none" x="400" y="210">UNREGISTERED</text><text fill="#eeeeee" stroke="none" font-family="Arial" font-size="24px" font-style="normal" font-weight="normal" text-decoration="none" x="400" y="240">UNREGISTERED</text><text fill="#eeeeee" stroke="none" font-family="Arial" font-size="24px" font-style="normal" font-weight="normal" text-decoration="none" x="400" y="270">UNREGISTERED</text><text fill="#eeeeee" stroke="none" font-family="Arial" font-size="24px" font-style="normal" font-weight="normal" text-decoration="none" x="400" y="300">UNREGISTERED</text><text fill="#eeeeee" stroke="none" font-family="Arial" font-size="24px" font-style="normal" font-weight="normal" text-decoration="none" x="400" y="330">UNREGISTERED</text><text fill="#eeeeee" stroke="none" font-family="Arial" font-size="24px" font-style="normal" font-weight="normal" text-decoration="none" x="400" y="360">UNREGISTERED</text><text fill="#eeeeee" stroke="none" font-family="Arial" font-size="24px" font-style="normal" font-weight="normal" text-decoration="none" x="400" y="390">UNREGISTERED</text><text fill="#eeeeee" stroke="none" font-family="Arial" font-size="24px" font-style="normal" font-weight="normal" text-decoration="none" x="400" y="420">UNREGISTERED</text><text fill="#eeeeee" stroke="none" font-family="Arial" font-size="24px" font-style="normal" font-weight="normal" text-decoration="none" x="400" y="450">UNREGISTERED</text><text fill="#eeeeee" stroke="none" font-family="Arial" font-size="24px" font-style="normal" font-weight="normal" text-decoration="none" x="400" y="480">UNREGISTERED</text><text fill="#eeeeee" stroke="none" font-family="Arial" font-size="24px" font-style="normal" font-weight="normal" text-decoration="none" x="400" y="510">UNREGISTERED</text><text fill="#eeeeee" stroke="none" font-family="Arial" font-size="24px" font-style="normal" font-weight="normal" text-decoration="none" x="400" y="540">UNREGISTERED</text><text fill="#eeeeee" stroke="none" font-family="Arial" font-size="24px" font-style="normal" font-weight="normal" text-decoration="none" x="400" y="570">UNREGISTERED</text><text fill="#eeeeee" stroke="none" font-family="Arial" font-size="24px" font-style="normal" font-weight="normal" text-decoration="none" x="400" y="600">UNREGISTERED</text><text fill="#eeeeee" stroke="none" font-family="Arial" font-size="24px" font-style="normal" font-weight="normal" text-decoration="none" x="400" y="630">UNREGISTERED</text><text fill="#eeeeee" stroke="none" font-family="Arial" font-size="24px" font-style="normal" font-weight="normal" text-decoration="none" x="600" y="0">UNREGISTERED</text><text fill="#eeeeee" stroke="none" font-family="Arial" font-size="24px" font-style="normal" font-weight="normal" text-decoration="none" x="600" y="30">UNREGISTERED</text><text fill="#eeeeee" stroke="none" font-family="Arial" font-size="24px" font-style="normal" font-weight="normal" text-decoration="none" x="600" y="60">UNREGISTERED</text><text fill="#eeeeee" stroke="none" font-family="Arial" font-size="24px" font-style="normal" font-weight="normal" text-decoration="none" x="600" y="90">UNREGISTERED</text><text fill="#eeeeee" stroke="none" font-family="Arial" font-size="24px" font-style="normal" font-weight="normal" text-decoration="none" x="600" y="120">UNREGISTERED</text><text fill="#eeeeee" stroke="none" font-family="Arial" font-size="24px" font-style="normal" font-weight="normal" text-decoration="none" x="600" y="150">UNREGISTERED</text><text fill="#eeeeee" stroke="none" font-family="Arial" font-size="24px" font-style="normal" font-weight="normal" text-decoration="none" x="600" y="180">UNREGISTERED</text><text fill="#eeeeee" stroke="none" font-family="Arial" font-size="24px" font-style="normal" font-weight="normal" text-decoration="none" x="600" y="210">UNREGISTERED</text><text fill="#eeeeee" stroke="none" font-family="Arial" font-size="24px" font-style="normal" font-weight="normal" text-decoration="none" x="600" y="240">UNREGISTERED</text><text fill="#eeeeee" stroke="none" font-family="Arial" font-size="24px" font-style="normal" font-weight="normal" text-decoration="none" x="600" y="270">UNREGISTERED</text><text fill="#eeeeee" stroke="none" font-family="Arial" font-size="24px" font-style="normal" font-weight="normal" text-decoration="none" x="600" y="300">UNREGISTERED</text><text fill="#eeeeee" stroke="none" font-family="Arial" font-size="24px" font-style="normal" font-weight="normal" text-decoration="none" x="600" y="330">UNREGISTERED</text><text fill="#eeeeee" stroke="none" font-family="Arial" font-size="24px" font-style="normal" font-weight="normal" text-decoration="none" x="600" y="360">UNREGISTERED</text><text fill="#eeeeee" stroke="none" font-family="Arial" font-size="24px" font-style="normal" font-weight="normal" text-decoration="none" x="600" y="390">UNREGISTERED</text><text fill="#eeeeee" stroke="none" font-family="Arial" font-size="24px" font-style="normal" font-weight="normal" text-decoration="none" x="600" y="420">UNREGISTERED</text><text fill="#eeeeee" stroke="none" font-family="Arial" font-size="24px" font-style="normal" font-weight="normal" text-decoration="none" x="600" y="450">UNREGISTERED</text><text fill="#eeeeee" stroke="none" font-family="Arial" font-size="24px" font-style="normal" font-weight="normal" text-decoration="none" x="600" y="480">UNREGISTERED</text><text fill="#eeeeee" stroke="none" font-family="Arial" font-size="24px" font-style="normal" font-weight="normal" text-decoration="none" x="600" y="510">UNREGISTERED</text><text fill="#eeeeee" stroke="none" font-family="Arial" font-size="24px" font-style="normal" font-weight="normal" text-decoration="none" x="600" y="540">UNREGISTERED</text><text fill="#eeeeee" stroke="none" font-family="Arial" font-size="24px" font-style="normal" font-weight="normal" text-decoration="none" x="600" y="570">UNREGISTERED</text><text fill="#eeeeee" stroke="none" font-family="Arial" font-size="24px" font-style="normal" font-weight="normal" text-decoration="none" x="600" y="600">UNREGISTERED</text><text fill="#eeeeee" stroke="none" font-family="Arial" font-size="24px" font-style="normal" font-weight="normal" text-decoration="none" x="600" y="630">UNREGISTERED</text><g transform="translate(-102,-58) scale(1,1)"><path fill="#ffffff" stroke="none" d="M 125.82365696022728 161.68 C 125.82365696022728 156.886167936 129.70949928517274 153 134.5029296875 153 C 139.29636008982726 153 143.18220241477272 156.886167936 143.18220241477272 161.68 C 143.18220241477272 166.47383206400002 139.29636008982726 170.36 134.5029296875 170.36 C 129.70949928517274 170.36 125.82365696022728 166.47383206400002 125.82365696022728 161.68 Z"/></g><g transform="translate(-102,-58) scale(1,1)"><path fill="none" stroke="#000000" d="M 125.82365696022728 161.68 C 125.82365696022728 156.886167936 129.70949928517274 153 134.5029296875 153 C 139.29636008982726 153 143.18220241477272 156.886167936 143.18220241477272 161.68 C 143.18220241477272 166.47383206400002 139.29636008982726 170.36 134.5029296875 170.36 C 129.70949928517274 170.36 125.82365696022728 166.47383206400002 125.82365696022728 161.68 Z" stroke-miterlimit="10"/></g><g transform="translate(-102,-58) scale(1,1)"><path fill="none" stroke="#000000" d="M 134.5029296875 170.36 L 134.5029296875 187.64" stroke-miterlimit="10"/></g><g transform="translate(-102,-58) scale(1,1)"><path fill="none" stroke="#000000" d="M 125.31311150568183 176.84 L 143.69274786931817 176.84" stroke-miterlimit="10"/></g><g transform="translate(-102,-58) scale(1,1)"><path fill="none" stroke="#000000" d="M 134.5029296875 187.64 L 121.73929332386365 205" stroke-miterlimit="10"/></g><g transform="translate(-102,-58) scale(1,1)"><path fill="none" stroke="#000000" d="M 134.5029296875 187.64 L 147.26656605113635 205" stroke-miterlimit="10"/></g><g transform="translate(-102,-58) scale(1,1)"><g><path fill="none" stroke="none"/><text fill="#000000" stroke="none" font-family="Courier" font-size="10px" font-style="normal" font-weight="bold" text-decoration="none" x="122.5009765625" y="222.5">User</text></g></g><g transform="translate(-102,-58) scale(1,1)"><path fill="#C0C0C0" stroke="none" d="M 415 110.5 C 415 101.9395856 433.1324656 95 455.5 95 C 477.8675344 95 496 101.9395856 496 110.5 C 496 119.0604144 477.8675344 126 455.5 126 C 433.1324656 126 415 119.0604144 415 110.5 Z" opacity="0.2"/></g><g transform="translate(-102,-58) scale(1,1)"><path fill="#ffffff" stroke="none" d="M 408 103.5 C 408 94.9395856 426.1324656 88 448.5 88 C 470.8675344 88 489 94.9395856 489 103.5 C 489 112.0604144 470.8675344 119 448.5 119 C 426.1324656 119 408 112.0604144 408 103.5 Z"/></g><g transform="translate(-102,-58) scale(1,1)"><path fill="none" stroke="#000000" d="M 408 103.5 C 408 94.9395856 426.1324656 88 448.5 88 C 470.8675344 88 489 94.9395856 489 103.5 C 489 112.0604144 470.8675344 119 448.5 119 C 426.1324656 119 408 112.0604144 408 103.5 Z" stroke-miterlimit="10"/></g><g transform="translate(-102,-58) scale(1,1)"><g><path fill="none" stroke="none"/><text fill="#000000" stroke="none" font-family="Courier" font-size="10px" font-style="normal" font-weight="bold" text-decoration="none" x="430.4970703125" y="109">SignUp</text></g></g><g transform="translate(-102,-58) scale(1,1)"><path fill="#C0C0C0" stroke="none" d="M 415 318.5 C 415 309.9395856 433.1324656 303 455.5 303 C 477.8675344 303 496 309.9395856 496 318.5 C 496 327.0604144 477.8675344 334 455.5 334 C 433.1324656 334 415 327.0604144 415 318.5 Z" opacity="0.2"/></g><g transform="translate(-102,-58) scale(1,1)"><path fill="#ffffff" stroke="none" d="M 408 311.5 C 408 302.9395856 426.1324656 296 448.5 296 C 470.8675344 296 489 302.9395856 489 311.5 C 489 320.0604144 470.8675344 327 448.5 327 C 426.1324656 327 408 320.0604144 408 311.5 Z"/></g><g transform="translate(-102,-58) scale(1,1)"><path fill="none" stroke="#000000" d="M 408 311.5 C 408 302.9395856 426.1324656 296 448.5 296 C 470.8675344 296 489 302.9395856 489 311.5 C 489 320.0604144 470.8675344 327 448.5 327 C 426.1324656 327 408 320.0604144 408 311.5 Z" stroke-miterlimit="10"/></g><g transform="translate(-102,-58) scale(1,1)"><g><path fill="none" stroke="none"/><text fill="#000000" stroke="none" font-family="Courier" font-size="10px" font-style="normal" font-weight="bold" text-decoration="none" x="433.49755859375" y="317">Login</text></g></g><g transform="translate(-102,-58) scale(1,1)"><path fill="#C0C0C0" stroke="none" d="M 719 694.5 C 719 685.9395856 742.7289056 679 772 679 C 801.2710944 679 825 685.9395856 825 694.5 C 825 703.0604144 801.2710944 710 772 710 C 742.7289056 710 719 703.0604144 719 694.5 Z" opacity="0.2"/></g><g transform="translate(-102,-58) scale(1,1)"><path fill="#ffffff" stroke="none" d="M 712 687.5 C 712 678.9395856 735.7289056 672 765 672 C 794.2710944 672 818 678.9395856 818 687.5 C 818 696.0604144 794.2710944 703 765 703 C 735.7289056 703 712 696.0604144 712 687.5 Z"/></g><g transform="translate(-102,-58) scale(1,1)"><path fill="none" stroke="#000000" d="M 712 687.5 C 712 678.9395856 735.7289056 672 765 672 C 794.2710944 672 818 678.9395856 818 687.5 C 818 696.0604144 794.2710944 703 765 703 C 735.7289056 703 712 696.0604144 712 687.5 Z" stroke-miterlimit="10"/></g><g transform="translate(-102,-58) scale(1,1)"><g><path fill="none" stroke="none"/><text fill="#000000" stroke="none" font-family="Courier" font-size="10px" font-style="normal" font-weight="bold" text-decoration="none" x="731.99462890625" y="693">Remember Me</text></g></g><g transform="translate(-102,-58) scale(1,1)"><path fill="#C0C0C0" stroke="none" d="M 375 486.5 C 375 477.9395856 406.340064 471 445 471 C 483.659936 471 515 477.9395856 515 486.5 C 515 495.0604144 483.659936 502 445 502 C 406.340064 502 375 495.0604144 375 486.5 Z" opacity="0.2"/></g><g transform="translate(-102,-58) scale(1,1)"><path fill="#ffffff" stroke="none" d="M 368 479.5 C 368 470.9395856 399.340064 464 438 464 C 476.659936 464 508 470.9395856 508 479.5 C 508 488.0604144 476.659936 495 438 495 C 399.340064 495 368 488.0604144 368 479.5 Z"/></g><g transform="translate(-102,-58) scale(1,1)"><path fill="none" stroke="#000000" d="M 368 479.5 C 368 470.9395856 399.340064 464 438 464 C 476.659936 464 508 470.9395856 508 479.5 C 508 488.0604144 476.659936 495 438 495 C 399.340064 495 368 488.0604144 368 479.5 Z" stroke-miterlimit="10"/></g><g transform="translate(-102,-58) scale(1,1)"><g><path fill="none" stroke="none"/><text fill="#000000" stroke="none" font-family="Courier" font-size="10px" font-style="normal" font-weight="bold" text-decoration="none" x="392.99267578125" y="485">Forget Password</text></g></g><g transform="translate(-102,-58) scale(1,1)"><path fill="none" stroke="#000000" d="M 158 183 L 407 114" stroke-miterlimit="10"/></g><g transform="translate(-102,-58) scale(1,1)"><path fill="none" stroke="#000000" d="M 158 199 L 407 295" stroke-miterlimit="10"/></g><g transform="translate(-102,-58) scale(1,1)"><path fill="none" stroke="#000000" d="M 158 213 L 421 463" stroke-miterlimit="10"/></g><g transform="translate(-102,-58) scale(1,1)"><path fill="#C0C0C0" stroke="none" d="M 719 110.5 C 719 101.9395856 738.9233264 95 763.5 95 C 788.0766736 95 808 101.9395856 808 110.5 C 808 119.0604144 788.0766736 126 763.5 126 C 738.9233264 126 719 119.0604144 719 110.5 Z" opacity="0.2"/></g><g transform="translate(-102,-58) scale(1,1)"><path fill="#ffffff" stroke="none" d="M 712 103.5 C 712 94.9395856 731.9233264 88 756.5 88 C 781.0766736 88 801 94.9395856 801 103.5 C 801 112.0604144 781.0766736 119 756.5 119 C 731.9233264 119 712 112.0604144 712 103.5 Z"/></g><g transform="translate(-102,-58) scale(1,1)"><path fill="none" stroke="#000000" d="M 712 103.5 C 712 94.9395856 731.9233264 88 756.5 88 C 781.0766736 88 801 94.9395856 801 103.5 C 801 112.0604144 781.0766736 119 756.5 119 C 731.9233264 119 712 112.0604144 712 103.5 Z" stroke-miterlimit="10"/></g><g transform="translate(-102,-58) scale(1,1)"><g><path fill="none" stroke="none"/><text fill="#000000" stroke="none" font-family="Courier" font-size="10px" font-style="normal" font-weight="bold" text-decoration="none" x="729.49560546875" y="109">Fill Info</text></g></g><g transform="translate(-102,-58) scale(1,1)"><path fill="#C0C0C0" stroke="none" d="M 679 318.5 C 679 309.9395856 715.936504 303 761.5 303 C 807.063496 303 844 309.9395856 844 318.5 C 844 327.0604144 807.063496 334 761.5 334 C 715.936504 334 679 327.0604144 679 318.5 Z" opacity="0.2"/></g><g transform="translate(-102,-58) scale(1,1)"><path fill="#ffffff" stroke="none" d="M 672 311.5 C 672 302.9395856 708.936504 296 754.5 296 C 800.063496 296 837 302.9395856 837 311.5 C 837 320.0604144 800.063496 327 754.5 327 C 708.936504 327 672 320.0604144 672 311.5 Z"/></g><g transform="translate(-102,-58) scale(1,1)"><path fill="none" stroke="#000000" d="M 672 311.5 C 672 302.9395856 708.936504 296 754.5 296 C 800.063496 296 837 302.9395856 837 311.5 C 837 320.0604144 800.063496 327 754.5 327 C 708.936504 327 672 320.0604144 672 311.5 Z" stroke-miterlimit="10"/></g><g transform="translate(-102,-58) scale(1,1)"><g><path fill="none" stroke="none"/><text fill="#000000" stroke="none" font-family="Courier" font-size="10px" font-style="normal" font-weight="bold" text-decoration="none" x="700.4912109375" y="317">Enter Email &amp; pass</text></g></g><g transform="translate(-102,-58) scale(1,1)"><path fill="none" stroke="#000000" d="M 442 295 L 408 201 L 441 120" stroke-miterlimit="10" stroke-dasharray="3"/></g><g transform="translate(-102,-58) scale(1,1)"><path fill="none" stroke="#000000" d="M 441.0640566415997 130.99981348690363 L 441 120 L 433.2672521772784 127.82333759403198" stroke-miterlimit="10"/></g><g transform="translate(-102,-58) scale(1,1)"><g><path fill="none" stroke="none"/><text fill="#000000" stroke="none" font-family="Courier" font-size="10px" font-style="normal" font-weight="normal" text-decoration="none" x="352.5" y="193.5">«include»</text></g></g><g transform="translate(-102,-58) scale(1,1)"><path fill="#C0C0C0" stroke="none" d="M 679 454.5 C 679 445.9395856 717.9512224 439 766 439 C 814.0487776 439 853 445.9395856 853 454.5 C 853 463.0604144 814.0487776 470 766 470 C 717.9512224 470 679 463.0604144 679 454.5 Z" opacity="0.2"/></g><g transform="translate(-102,-58) scale(1,1)"><path fill="#ffffff" stroke="none" d="M 672 447.5 C 672 438.9395856 710.9512224 432 759 432 C 807.0487776 432 846 438.9395856 846 447.5 C 846 456.0604144 807.0487776 463 759 463 C 710.9512224 463 672 456.0604144 672 447.5 Z"/></g><g transform="translate(-102,-58) scale(1,1)"><path fill="none" stroke="#000000" d="M 672 447.5 C 672 438.9395856 710.9512224 432 759 432 C 807.0487776 432 846 438.9395856 846 447.5 C 846 456.0604144 807.0487776 463 759 463 C 710.9512224 463 672 456.0604144 672 447.5 Z" stroke-miterlimit="10"/></g><g transform="translate(-102,-58) scale(1,1)"><g><path fill="none" stroke="none"/><text fill="#000000" stroke="none" font-family="Courier" font-size="10px" font-style="normal" font-weight="bold" text-decoration="none" x="701.99072265625" y="453">get Authentificated</text></g></g><g transform="translate(-102,-58) scale(1,1)"><path fill="none" stroke="#000000" d="M 455 120 L 488 200 L 454 295" stroke-miterlimit="10" stroke-dasharray="3"/></g><g transform="translate(-102,-58) scale(1,1)"><path fill="none" stroke="#000000" d="M 453.46112255403966 284.0132074244466 L 454 295 L 461.3877916373968 286.8501205700691" stroke-miterlimit="10"/></g><g transform="translate(-102,-58) scale(1,1)"><g><path fill="none" stroke="none"/><text fill="#000000" stroke="none" font-family="Courier" font-size="10px" font-style="normal" font-weight="normal" text-decoration="none" x="491.5" y="214.5">«extend»</text></g></g><g transform="translate(-102,-58) scale(1,1)"><path fill="none" stroke="#000000" d="M 490 103 L 711 103" stroke-miterlimit="10" stroke-dasharray="3"/></g><g transform="translate(-102,-58) scale(1,1)"><path fill="none" stroke="#000000" d="M 700.8373251423759 107.20951775601598 L 711 103 L 700.8373251423758 98.79048224398402" stroke-miterlimit="10"/></g><g transform="translate(-102,-58) scale(1,1)"><g><path fill="none" stroke="none"/><text fill="#000000" stroke="none" font-family="Courier" font-size="10px" font-style="normal" font-weight="normal" text-decoration="none" x="572.5" y="77.5">«include»</text></g></g><g transform="translate(-102,-58) scale(1,1)"><path fill="none" stroke="#000000" d="M 490 311 L 671 311" stroke-miterlimit="10" stroke-dasharray="3"/></g><g transform="translate(-102,-58) scale(1,1)"><path fill="none" stroke="#000000" d="M 660.8373251423759 315.209517756016 L 671 311 L 660.8373251423758 306.790482243984" stroke-miterlimit="10"/></g><g transform="translate(-102,-58) scale(1,1)"><g><path fill="none" stroke="none"/><text fill="#000000" stroke="none" font-family="Courier" font-size="10px" font-style="normal" font-weight="normal" text-decoration="none" x="552.5" y="285.5">«include»</text></g></g><g transform="translate(-102,-58) scale(1,1)"><path fill="none" stroke="#000000" d="M 487 328 L 722 431" stroke-miterlimit="10" stroke-dasharray="3"/></g><g transform="translate(-102,-58) scale(1,1)"><path fill="none" stroke="#000000" d="M 711.0022845063982 430.77582613490995 L 722 431 L 714.3819556570837 423.0649259367438" stroke-miterlimit="10"/></g><g transform="translate(-102,-58) scale(1,1)"><g><path fill="none" stroke="none"/><text fill="#000000" stroke="none" font-family="Courier" font-size="10px" font-style="normal" font-weight="normal" text-decoration="none" x="588.5" y="355.5">«include»</text></g></g><g transform="translate(-102,-58) scale(1,1)"><path fill="none" stroke="#000000" d="M 462 328 L 752 671" stroke-miterlimit="10" stroke-dasharray="3"/></g><g transform="translate(-102,-58) scale(1,1)"><path fill="none" stroke="#000000" d="M 742.2239879658656 665.9572241068574 L 752 671 L 748.6530966277473 660.5215345676571" stroke-miterlimit="10"/></g><g transform="translate(-102,-58) scale(1,1)"><g><path fill="none" stroke="none"/><text fill="#000000" stroke="none" font-family="Courier" font-size="10px" font-style="normal" font-weight="normal" text-decoration="none" x="604.5" y="483.5">«extend»</text></g></g></g></svg>